<?xml version="1.0" encoding="UTF-8"?>
<svg id="Layer_1" data-name="Layer 1" xmlns="http://www.w3.org/2000/svg" width="400.22" height="400.22" viewBox="0 0 400.22 400.22">
  <defs>
    <style>
      .cls-1 {
        fill: #231f20;
        fill-rule: evenodd;
        stroke: #231f20;
        stroke-miterlimit: 22.93;
        stroke-width: .22px;
      }
    </style>
  </defs>
  <path class="cls-1" d="M.11,190.51c.6-29.4,7.4-56.2,19.6-80,12.2-23.8,28.4-44,48-60.2,19.6-16.2,41.6-29,65.2-37.4C156.31,4.51,179.91,.11,202.51,.11c24.6,0,49,4.8,72.4,13.6,23.4,9,44.8,22.8,63.6,40,18.8,17.2,34,38.4,44.6,62.8,10.8,24.4,16.8,51.4,17,80.6,0,41-9.2,77.2-27.6,107.8-18.6,31-43.6,54.8-73.8,70.8-30.4,16-63.2,24.4-97.4,24.4-23.8,0-47.6-4.8-71.4-13.6-23.8-9.4-45.8-23-65.6-40.8-19.6-18-35.4-40.6-46.6-66.8C6.11,252.71,.11,223.11,.11,190.51H.11ZM110.51,102.51c-7.2-3-13.6-6.2-19.6-8.6-6-2.8-11.4-5.8-15.8-8-4.8-2.8-8.6-5.8-11.4-8.4-26,27-41.6,64.8-45.8,113H90.31c.6-15.2,3-31.4,6.8-48.4,3.8-17,8.6-30.4,13.4-39.6h0ZM147.71,26.31c-11.8,3-25,8-38,14.8-13.4,7.2-24.4,15.2-32.8,24.2,4.8,4.8,17.8,11.8,38.4,21.4,8-21.4,19-41.6,32.4-60.4h0Zm24.8-5.4c-17,22.6-31,47.4-41.4,73,7.4,2.6,17.8,5.6,30.4,8,12.4,2.6,22.6,4.2,29,4.2V20.11c-8.2,0-14.6,.2-18,.8h0Zm18,103c-16.6,0-38.4-5.4-65.2-15.8-12.2,29.2-18.4,56.8-18.4,82.4h83.6V123.91h0Zm0,85.8H106.91c0,9.4,2.2,23.4,6.2,41.6,4.2,18.4,9,31.6,13.4,39.2,26.2-10,47.8-15.2,64-15.2v-65.6h0Zm-100.2,0H19.11c0,10.4,1.6,22.2,4.6,35,2.8,13.2,8.2,26.6,14.8,40.2,6.6,13.8,15.2,26,25.2,36,4.6-2.6,9.4-5.4,13.4-7.4,4.6-2.4,10.2-5.4,16.4-8.4,6.6-3,12-5.8,16.2-7.6-6.6-18.6-11.6-34.4-14.6-46.8-3-12.6-4.8-26.4-4.8-41h0Zm100.2,80.8c-31.8,5.8-51.8,10.8-59.4,14.6,11.2,28,25.2,53.4,41.4,75.4l18,1.2v-91.2h0Zm-75.2,21.6c-12,5.2-24.8,12.8-38.4,22,13,10.6,24.6,19,34.8,25,10.2,5.8,22.6,11.2,37.2,15.4-8.4-11.4-19.6-32.2-33.6-62.4h0Zm112.4,68.4c10.2-12.6,23.8-38.2,40.8-75.6-9.4-3.6-18.4-6.6-25.8-8.4-7.4-1.8-18.8-3.6-33-4.8v90l18-1.2h0Zm95-46.4c-4.2-3.6-17.6-11.4-39-22-2.4,5.8-6,14.8-10.4,25.8-4.8,11-11.8,23-20.8,35.4,28.8-6.2,52.4-19.6,70.2-39.2h0Zm58.4-124.4h-69.6c0,22-7.2,50.8-21.2,86.6,6,3.2,14.6,7.6,25,12.8,10.6,5.2,17.8,9.4,21.2,11.8,11.8-11.6,22.6-28.2,31.2-49.4,8.8-21.2,13.4-42,13.4-61.8h0Zm-88.4,0h-83v65.6c8.2,0,19.8,1.8,33.6,4.8,13.6,3.4,24.4,7,31.2,10.4,12-30.2,18.2-57.6,18.2-80.8h0Zm-83-85.8v66.6h83c0-13-2.2-28.8-6.2-46.4-4.2-17.6-8.4-29.8-12-36-26.4,10.4-48.2,15.8-64.8,15.8h0Zm125.8-46.4c-9.6,7.2-25,15.4-45.2,25,6,14.2,10.6,29.8,14.2,45.8,3.6,16,5.8,30.4,5.8,42.2h70.8c0-12.2-2.2-25.6-5.8-39.8-3.4-14.2-9.2-28.2-16-40.8-6.8-12.4-14.8-23.4-23.8-32.4h0Zm-12.8-12.2c-22.6-19-47.4-32.4-72.8-40.2,13.6,17.2,25.4,38.4,35,62.8,2.8-1.2,6.8-3.6,12-6.2,5.2-2.8,10.4-5.8,14.6-8,4.4-2.8,8.2-5.8,11.2-8.4h0ZM226.51,20.91c-3.8-.6-9.8-.8-16.8-.8V106.11c28-1.8,47.8-6.2,58.8-13.4-11.6-28-25.8-52.2-42-71.8h0Z"/>
</svg>